<?xml version="1.0" encoding="iso-8859-1"?>
<!-- Generator: Adobe Illustrator 19.0.0, SVG Export Plug-In . SVG Version: 6.00 Build 0)  -->
<svg version="1.1" id="Capa_1" xmlns="http://www.w3.org/2000/svg" xmlns:xlink="http://www.w3.org/1999/xlink" x="0px" y="0px"
	 viewBox="0 0 511.999 511.999" style="enable-background:new 0 0 511.999 511.999;" xml:space="preserve" fill="#FFFFFF">
<g>
	<g>
		<path d="M469.667,499.582l-45.006-180.698c-8.705-34.951-34.395-54.2-72.337-54.2h-38.737l-10.801-27.001
			c2.578-2.693,5.102-5.596,7.56-8.718c12.392-15.742,23.039-37.123,28.522-57.253c1.104-3.279,1.92-6.871,2.535-10.656
			c38.686-20.413,46.77-52.463,41.095-76.31c-7.79-32.732-39.425-55.259-77.8-55.968c-30.356-31.856-61.455-22.791-86.607-15.457
			c-25.84,7.533-41.238,10.806-57.263-9.514c-1.644-2.084-4.049-3.43-6.685-3.739c-2.645-0.312-5.289,0.441-7.37,2.088
			c-23.18,18.332-34.886,44.516-32.961,73.726c2.122,32.198,20.563,62.995,48.528,81.624c1.653,19.514,11.523,43.148,26.59,63.148
			c4.964,6.589,10.262,12.49,15.772,17.638l-9.084,26.391c-0.003,0-0.001,0-0.003,0s-39.029,0-39.032,0
			c-9.213-0.057-24.818,3.474-39.063,11.513c-18.756,10.584-30.959,26.369-35.291,45.65L42.278,499.699
			c-0.665,2.963,0.052,6.068,1.948,8.439c1.897,2.372,4.77,3.752,7.806,3.753l407.929,0.108c0.001,0,0.002,0,0.003,0
			c3.077,0,5.983-1.417,7.879-3.841C469.738,505.732,470.411,502.569,469.667,499.582z M162.102,105.811l-0.004,26.155
			c-16.437-15.158-26.912-35.926-28.327-57.399c-1.273-19.327,5.237-36.945,18.472-50.488c9.591,9.19,20.418,14.106,32.86,14.962
			c13.126,0.904,26.07-2.871,38.587-6.52c24.754-7.217,46.135-13.452,69.078,12.848c1.961,2.248,4.836,3.522,7.809,3.422
			c36.06-0.973,57.649,20.346,62.467,40.586c4.2,17.646-3.179,34.466-19.992,47.078c0.016-6.036-0.142-12.099-0.295-17.915
			c-0.122-4.606-0.236-8.956-0.236-12.727c0-4.832-3.455-8.973-8.209-9.838c-23.586-4.295-34.812-8.863-50.828-25.966
			c-3.075-3.284-7.964-4.11-11.948-2.018c-36.759,19.305-62.867,26.587-99.77,27.828
			C166.376,95.999,162.103,100.419,162.102,105.811z M182.092,151.851l0.005-36.512c33.169-2.124,58.906-9.49,92.122-26.237
			c15.445,14.886,29.16,20.804,48.416,24.952c0.038,1.631,0.082,3.305,0.127,5.012c0.415,15.729,0.932,35.301-2.915,46.464
			c-0.074,0.215-0.142,0.433-0.2,0.653c-5.105,18.916-17.435,44.996-34.696,61.096c-0.452,0.347-0.868,0.729-1.249,1.14
			c-9.057,8.081-19.416,13.381-30.768,13.514c-9.604-0.954-19.846-5.833-29.728-13.937c-0.333-0.316-0.686-0.613-1.064-0.884
			c-5.963-5.043-11.782-11.255-17.234-18.493C191.047,190.224,182.092,167.941,182.092,151.851z M294.216,270.105l-38.333,21.009
			l-40.872-21.315l6.409-18.62c9.969,6.144,20.233,9.849,30.209,10.719c0.289,0.025,0.579,0.038,0.869,0.038
			c11.795,0,23.314-3.645,34.167-10.708L294.216,270.105z M167.409,337.714c6.893,0,12.5,5.607,12.5,12.5
			c0,6.893-5.607,12.5-12.5,12.5c-6.893,0-12.5-5.607-12.5-12.5C154.91,343.32,160.517,337.714,167.409,337.714z M177.409,491.925
			v-43.314c0-5.523-4.478-10-10-10c-5.523,0-10,4.477-10,10v43.309l-92.88-0.025l37.216-165.665
			c7.061-31.428,42.818-41.548,54.638-41.548c0.045,0,0.091,0,0.136,0h0.891v34.612c-13.041,4.228-22.499,16.487-22.499,30.918
			c0,17.919,14.579,32.499,32.499,32.499c17.92,0,32.499-14.58,32.499-32.499c0-14.432-9.459-26.689-22.499-30.918v-34.612h22.894
			l51.073,26.635c1.449,0.756,3.037,1.133,4.624,1.133c1.655,0,3.31-0.411,4.806-1.231l48.422-26.538h43.099
			c28.671,0,46.479,13.133,52.931,39.035l41.912,168.279L177.409,491.925z"/>
	</g>
</g>
<g>
	<g>
		<path d="M370.475,340.75h-16.77v-16.771c0-5.523-4.478-10-10-10h-32.126c-5.522,0-10,4.477-10,10v16.771h-16.771
			c-5.522,0-10,4.477-10,10v32.125c0,5.523,4.478,10,10,10h16.771v16.771c0,5.523,4.478,10,10,10h32.126c5.522,0,10-4.477,10-10
			v-16.771h16.77c5.523,0,10-4.477,10-10V350.75C380.475,345.227,375.997,340.75,370.475,340.75z M360.475,372.875h-16.771
			c-5.522,0-10,4.477-10,10v16.771h-12.127v-16.771c0-5.523-4.478-10-10-10h-16.771V360.75h16.771c5.522,0,10-4.477,10-10v-16.771
			h12.127v16.771c0,5.523,4.478,10,10,10h16.771V372.875z"/>
	</g>
</g>
<g>
	<g>
		<path d="M167.409,408.564c-5.523,0-10,4.477-10,10v0.324c0,5.523,4.477,10,10,10c5.522,0,10-4.477,10-10v-0.324
			C177.409,413.041,172.931,408.564,167.409,408.564z"/>
	</g>
</g>
<g>
	<g>
		<path d="M284.271,136.844c-5.507,0-10,4.492-10,10s4.493,10,10,10c5.509,0,10-4.492,10-10S289.78,136.844,284.271,136.844z"/>
	</g>
</g>
<g>
	<g>
		<path d="M225.273,136.844c-5.507,0-10,4.492-10,10s4.493,10,10,10c5.509,0,10-4.492,10-10S230.781,136.844,225.273,136.844z"/>
	</g>
</g>
<g>
</g>
<g>
</g>
<g>
</g>
<g>
</g>
<g>
</g>
<g>
</g>
<g>
</g>
<g>
</g>
<g>
</g>
<g>
</g>
<g>
</g>
<g>
</g>
<g>
</g>
<g>
</g>
<g>
</g>
</svg>
