<?xml version="1.0" encoding="iso-8859-1"?>
<!-- Generator: Adobe Illustrator 19.0.0, SVG Export Plug-In . SVG Version: 6.00 Build 0)  -->
<svg version="1.1" id="Capa_1" xmlns="http://www.w3.org/2000/svg" xmlns:xlink="http://www.w3.org/1999/xlink" x="0px" y="0px"
	 viewBox="0 0 507.968 507.968" style="enable-background:new 0 0 507.968 507.968;" xml:space="preserve" fill="#FFFFFF">
<g>
	<g>
		<path d="M437.984,157.636v24h-12.688L355.64,111.98l-13.008-7.672l45.696-45.696c5.784-5.784,8.968-13.472,8.968-21.656
			c0-16.888-13.744-30.624-30.624-30.624c-8.176,0-15.872,3.184-21.656,8.968l-62.344,62.336h-27.304
			c-8.064,0-15.768,3.008-21.712,8.488l-91.736,84.68c-5.048,4.656-7.936,11.272-7.936,18.144c0,10.088,6.104,18.76,14.792,22.584
			l-26.104,26.104l8,8l-16,16h-0.408c-20.376,0-39.528,7.936-53.936,22.344c-14.408,14.408-22.344,33.56-22.344,53.936v55.032
			l120-120l8,8l9.144-9.144c4.408,3.648,9.896,5.832,15.824,5.832c6.576,0,13.008-2.664,17.656-7.312l7.552-7.552
			c3.896,8.736,12.632,14.864,22.792,14.864c6.576,0,13.008-2.664,17.656-7.312l28.608-28.608l79.032,35.92h73.736v24h64v-144
			H437.984z M356.328,26.604c2.72-2.72,6.496-4.28,10.344-4.28c8.064,0,14.624,6.56,14.624,14.624c0,3.912-1.52,7.584-4.28,10.344
			L242.672,181.636h-41.376L356.328,26.604z M285.896,161.036c-0.472,8.288-6.464,15.352-14.68,16.992l-2.888,0.576L285.896,161.036
			z M152.784,182.564l91.728-84.672c2.968-2.752,6.824-4.256,10.856-4.256h11.304L164.128,196.18
			c-1.376,0.864-2.904,1.456-4.552,1.456h-0.896c-4.8,0-8.696-3.896-8.696-8.688C149.984,186.532,151,184.196,152.784,182.564z
			 M53.984,354.324v-16.408c0-16.104,6.272-31.232,17.656-42.624c11.392-11.384,26.52-17.656,42.624-17.656h7.032l20.688-20.688
			l4.688,4.688L53.984,354.324z M165.984,258.324l-20.688-20.688l21.52-21.52c2.44,10.224,10.464,18.248,20.688,20.688
			L165.984,258.324z M197.296,259.012c-2.792,2.792-7.28,3.064-10.672,1.296l22.672-22.672h9.376L197.296,259.012z M245.296,259.012
			c-1.672,1.664-3.984,2.624-6.344,2.624c-4.944,0-8.968-4.024-8.968-8.968c0-2.4,0.928-4.648,2.624-6.344l8.688-8.688h25.376
			L245.296,259.012z M437.984,261.636H367.72l-88-40h-85.736c-6.616,0-12-5.384-12-12c0-6.616,5.384-12,12-12h60l20.368-3.912
			c16.016-3.208,27.632-17.384,27.632-33.712c0-4.352-0.888-8.568-2.472-12.592l31.44-31.44l14.136,8.072l73.584,73.584h19.312
			V261.636z M485.984,285.636h-32v-8v-96v-8h32V285.636z"/>
	</g>
</g>
<g>
	<g>
		<path d="M500.88,489.58c-0.824-1.4-84.2-139.944-246.896-139.944S7.912,488.18,7.088,489.58L0,501.636h507.968L500.88,489.58z
			 M29.088,485.636c23.856-32.608,99.512-120,224.896-120s201.04,87.392,224.896,120H29.088z"/>
	</g>
</g>
<g>
	<g>
		<rect x="237.984" y="381.636" width="32" height="16"/>
	</g>
</g>
<g>
	<g>
		
			<rect x="153.177" y="396.58" transform="matrix(0.9397 -0.3419 0.3419 0.9397 -128.133 82.2261)" width="31.999" height="15.991"/>
	</g>
</g>
<g>
	<g>
		
			<rect x="78.531" y="439.666" transform="matrix(0.766 -0.6429 0.6429 0.766 -265.6684 165.5384)" width="32.001" height="15.993"/>
	</g>
</g>
<g>
	<g>
		
			<rect x="405.415" y="431.64" transform="matrix(0.6428 -0.7661 0.7661 0.6428 -195.2362 476.6104)" width="15.993" height="32.002"/>
	</g>
</g>
<g>
	<g>
		<rect x="330.809" y="388.548" transform="matrix(0.342 -0.9397 0.9397 0.342 -157.2202 584.5665)" width="15.992" height="32"/>
	</g>
</g>
<g>
</g>
<g>
</g>
<g>
</g>
<g>
</g>
<g>
</g>
<g>
</g>
<g>
</g>
<g>
</g>
<g>
</g>
<g>
</g>
<g>
</g>
<g>
</g>
<g>
</g>
<g>
</g>
<g>
</g>
</svg>
