<?xml version="1.0" encoding="iso-8859-1"?>
<!-- Generator: Adobe Illustrator 19.0.0, SVG Export Plug-In . SVG Version: 6.00 Build 0)  -->
<svg version="1.1" id="Capa_1" xmlns="http://www.w3.org/2000/svg" xmlns:xlink="http://www.w3.org/1999/xlink" x="0px" y="0px"
	 viewBox="0 0 512.002 512.002" style="enable-background:new 0 0 512.002 512.002;" xml:space="preserve" fill="#FFFFFF">
<g>
	<g>
		<path d="M340.848,119.392v-27.39h1.91c13.233,0,24-10.767,24-24V24c0-13.234-10.767-24-24-24H169.242
			c-13.234,0-24.001,10.767-24.001,24v44.001c0,13.233,10.767,24,24.001,24h1.909v27.39c-21.67,8.241-85.151,37.209-85.151,93.69
			V444.5c0,37.22,28.678,67.502,63.928,67.502h212.145c35.25,0,63.928-30.281,63.928-67.502V213.083
			C426.001,156.602,362.517,127.633,340.848,119.392z M169.242,72.001c-2.169,0.001-4.001-1.831-4.001-3.999V24
			c0-2.168,1.832-4,4.001-4h173.516c2.168,0,4,1.832,4,4v44.001c0,2.168-1.832,4-4,4H169.242z M115.401,182.999h60.755
			c5.523,0,10-4.477,10-10c0-5.523-4.477-10-10-10h-42.161c22.23-18.016,49.675-26.845,50.133-26.989
			c4.178-1.303,7.023-5.17,7.023-9.546V92.002h129.696v34.461c0,4.376,2.846,8.244,7.023,9.546
			c0.729,0.228,68.2,21.799,77.145,67.073H106.991C108.441,195.778,111.418,189.085,115.401,182.999z M362.072,492.001H149.927
			c-21.049,0-38.681-16.096-42.94-37.501h298.024C400.754,475.905,383.121,492.001,362.072,492.001z M406.001,395h-55.953
			c-5.522,0-10,4.477-10,10s4.478,10,10,10h55.953v19.5H106V223.083h300V395z"/>
	</g>
</g>
<g>
	<g>
		<path d="M314.488,286.857h-26.556v-26.555c0-5.523-4.478-10-10-10h-43.866c-5.523,0-10,4.477-10,10v26.555h-26.556
			c-5.523,0-10,4.477-10,10v43.867c0,5.523,4.477,10,10,10h26.556v26.556c0,5.523,4.477,10,10,10h43.866c5.522,0,10-4.477,10-10
			v-26.556h26.556c5.522,0,10-4.477,10-10v-43.867C324.488,291.334,320.011,286.857,314.488,286.857z M304.488,330.724h-26.556
			c-5.522,0-10,4.477-10,10v26.556h-23.866v-26.556c0-5.523-4.477-10-10-10h-26.556v-23.867h26.556c5.523,0,10-4.477,10-10v-26.555
			h23.866v26.555c0,5.523,4.478,10,10,10h26.556V330.724z"/>
	</g>
</g>
<g>
	<g>
		<path d="M206.204,163h-0.324c-5.523,0-10,4.477-10,10s4.477,10,10,10h0.324c5.523,0,10-4.477,10-10S211.726,163,206.204,163z"/>
	</g>
</g>
<g>
	<g>
		<path d="M320.324,395h-0.324c-5.523,0-10,4.477-10,10s4.477,10,10,10h0.324c5.522,0,10-4.477,10-10S325.846,395,320.324,395z"/>
	</g>
</g>
<g>
</g>
<g>
</g>
<g>
</g>
<g>
</g>
<g>
</g>
<g>
</g>
<g>
</g>
<g>
</g>
<g>
</g>
<g>
</g>
<g>
</g>
<g>
</g>
<g>
</g>
<g>
</g>
<g>
</g>
</svg>
