<?xml version="1.0" encoding="iso-8859-1"?>
<!-- Generator: Adobe Illustrator 19.0.0, SVG Export Plug-In . SVG Version: 6.00 Build 0)  -->
<svg version="1.1" id="Capa_1" xmlns="http://www.w3.org/2000/svg" xmlns:xlink="http://www.w3.org/1999/xlink" x="0px" y="0px"
	 viewBox="0 0 512.002 512.002" style="enable-background:new 0 0 512.002 512.002;" xml:space="preserve" fill="#FFFFFF">
<g>
	<g>
		<path d="M446.001,412.002h-20.416V63.864c0-26.57-19.834-48.187-44.213-48.187H308.02c-24.302,0-44.082,21.48-44.207,47.936
			H190.81c-2.979-10.845-11.328-19.487-22.002-22.868V10c0-5.523-4.477-10-10-10h-39.202c-5.522,0-10,4.477-10,10v30.745
			c-13.429,4.253-23.189,16.83-23.189,31.647v110.435c0,14.816,9.761,27.393,23.188,31.645v28.786c0,5.522,4.478,10,10,10h39.203
			c5.523,0,10-4.478,10-10v-28.785c13.429-4.253,23.189-16.83,23.189-31.646v-7.735h71.811v99.579H114.264
			c-15.173,0-27.517,12.345-27.517,27.517c0,15.173,12.344,27.517,27.517,27.517h149.544v82.297h-85.83v-17.399h0.746
			c14.354,0,26.031-11.678,26.031-26.031c0-14.354-11.678-26.03-26.031-26.03h-63.49c-14.354,0-26.031,11.677-26.031,26.03
			c0,14.354,11.678,26.031,26.031,26.031h0.745v17.399H66.001c-16.542,0-30,13.458-30,30v60c0,5.523,4.478,10,10,10H466
			c5.522,0,10-4.477,10-10v-60C476,425.46,462.542,412.002,446.001,412.002z M129.606,20h19.202v19.203h-19.202V20z
			 M148.808,233.259h-19.203v-17.243h19.203V233.259z M171.998,182.827c0,7.272-5.917,13.188-13.189,13.188h-39.203
			c-7.272,0-13.188-5.916-13.188-13.188V72.393c0-7.272,5.916-13.189,13.188-13.189h39.203c7.273,0,13.189,5.917,13.189,13.189
			V182.827z M283.809,63.864c0-15.542,10.861-28.187,24.213-28.187h73.352c13.352,0,24.213,12.645,24.213,28.187v348.138H283.809
			V63.864z M191.998,155.092V83.613h71.811v71.479H191.998z M114.264,309.705c-4.145,0-7.517-3.372-7.517-7.517
			c0-4.145,3.372-7.517,7.517-7.517h149.544v15.034H114.264z M115.234,374.602c-3.27,0.001-6.031-2.761-6.031-6.031
			c0-3.269,2.762-6.03,6.031-6.03h63.49c3.27,0,6.031,2.762,6.031,6.03c0,3.27-2.762,6.031-6.031,6.031h-10.746h-41.999H115.234z
			 M157.978,394.603v17.399h-21.999v-17.399H157.978z M456,492.002H56.001v-50c0-5.514,4.486-10,10-10h380
			c5.514,0,9.999,4.486,9.999,10V492.002z"/>
	</g>
</g>
<g>
	<g>
		<path d="M344.697,268.068c-22.056,0-40,17.944-40,40c0,22.056,17.944,40,40,40c22.056,0,40-17.944,40-40
			C384.697,286.013,366.752,268.068,344.697,268.068z M344.697,328.068c-11.028,0-20-8.972-20-20s8.972-20,20-20
			c11.028,0,20,8.972,20,20C364.697,319.097,355.725,328.068,344.697,328.068z"/>
	</g>
</g>
<g>
	<g>
		<path d="M374.697,93.66c-5.522,0-10,4.478-10,10v65.953c0,5.523,4.477,10,10,10s10-4.478,10-10V103.66
			C384.697,98.138,380.22,93.66,374.697,93.66z"/>
	</g>
</g>
<g>
	<g>
		<path d="M374.697,63.614c-5.522,0-10,4.477-10,10v0.324c0,5.522,4.477,10,10,10s10-4.478,10-10v-0.324
			C384.697,68.092,380.22,63.614,374.697,63.614z"/>
	</g>
</g>
<g>
	<g>
		<path d="M146.954,457.001H81.001c-5.522,0-10,4.478-10,10c0,5.523,4.478,10,10,10h65.952c5.522,0,10-4.477,10-10
			C156.954,461.478,152.476,457.001,146.954,457.001z"/>
	</g>
</g>
<g>
	<g>
		<path d="M177,457.001h-0.324c-5.523,0-10,4.478-10,10c0,5.523,4.477,10,10,10H177c5.523,0,10-4.477,10-10
			S182.523,457.001,177,457.001z"/>
	</g>
</g>
<g>
</g>
<g>
</g>
<g>
</g>
<g>
</g>
<g>
</g>
<g>
</g>
<g>
</g>
<g>
</g>
<g>
</g>
<g>
</g>
<g>
</g>
<g>
</g>
<g>
</g>
<g>
</g>
<g>
</g>
</svg>
