<svg enable-background="new 0 0 512 512" viewBox="0 0 512 512" xmlns="http://www.w3.org/2000/svg" fill="#FFFFFF"><path d="m475 438h-105c-14.061 0-25.5 11.439-25.5 25.5v1.5h-306.917c-9.695 0-17.583-7.888-17.583-17.583 0-9.696 7.888-17.584 17.583-17.584h76.75c5.522 0 10-4.478 10-10s-4.478-10-10-10h-76.75c-20.724 0-37.583 16.86-37.583 37.584s16.859 37.583 37.583 37.583h306.917v1.5c0 14.061 11.439 25.5 25.5 25.5h105c20.402 0 37-16.598 37-37s-16.598-37-37-37zm-27 54h-78c-3.033 0-5.5-2.467-5.5-5.5v-23c0-3.033 2.467-5.5 5.5-5.5h78zm27 0h-7v-34h7c9.374 0 17 7.626 17 17s-7.626 17-17 17z"/><path d="m164.74 412.76c-1.86-1.86-4.44-2.93-7.07-2.93-2.64 0-5.21 1.069-7.07 2.93-1.87 1.86-2.93 4.44-2.93 7.07s1.06 5.21 2.93 7.069c1.86 1.87 4.44 2.931 7.07 2.931s5.2-1.061 7.07-2.931c1.859-1.859 2.93-4.439 2.93-7.069s-1.07-5.21-2.93-7.07z"/><path d="m462.069 165.93c-1.859-1.861-4.439-2.93-7.069-2.93s-5.21 1.069-7.07 2.93-2.93 4.44-2.93 7.07 1.069 5.21 2.93 7.069c1.86 1.86 4.44 2.931 7.07 2.931s5.21-1.07 7.069-2.931c1.861-1.859 2.931-4.439 2.931-7.069s-1.07-5.21-2.931-7.07z"/><path d="m455 138c5.522 0 10-4.478 10-10v-78c0-27.57-22.43-50-50-50h-318c-27.57 0-50 22.43-50 50v254c0 27.57 22.43 50 50 50h109v29.6c-15.576 4.684-26.958 19.151-26.958 36.233v12.167c0 5.522 4.478 10 10 10h133.916c5.522 0 10-4.478 10-10v-12.167c0-17.082-11.382-31.549-26.958-36.233v-29.6h109c27.57 0 50-22.43 50-50v-90.333c0-5.522-4.478-10-10-10s-10 4.478-10 10v90.333c0 16.542-13.458 30-30 30h-318c-16.542 0-30-13.458-30-30v-254c0-16.542 13.458-30 30-30h318c16.542 0 30 13.458 30 30v78c0 5.522 4.478 10 10 10zm-229 216h60v28h-60zm69.125 48c9.833 0 17.833 8 17.833 17.833v2.167h-113.916v-2.167c0-9.833 8-17.833 17.833-17.833z"/><path d="m405 40h-298c-11.028 0-20 8.972-20 20v234c0 11.028 8.972 20 20 20h298c11.028 0 20-8.972 20-20v-234c0-11.028-8.972-20-20-20zm0 254h-298v-234h298l.013 233.999s-.004.001-.013.001z"/><path d="m382.791 197.553-77.153-98.035c-3.02-3.837-8.369-4.933-12.656-2.59-22.811 12.473-51.152 12.473-73.963 0-4.288-2.345-9.637-1.247-12.656 2.59l-77.152 98.035c-3.133 3.98-2.794 9.674.787 13.256 34.739 34.738 80.371 52.107 126.003 52.107s91.264-17.369 126.003-52.107c3.581-3.582 3.92-9.275.787-13.256zm-232.221 5.198 66.519-84.523c24.633 10.707 53.189 10.707 77.822 0l66.519 84.523c-59.85 53.562-151.01 53.562-210.86 0z"/><path d="m172.333 80h-35.333c-5.522 0-10 4.478-10 10s4.478 10 10 10h35.333c5.522 0 10-4.478 10-10s-4.478-10-10-10z"/><path d="m144.069 120.93c-1.859-1.86-4.439-2.93-7.069-2.93s-5.21 1.069-7.07 2.93-2.93 4.44-2.93 7.07 1.069 5.21 2.93 7.069c1.86 1.861 4.44 2.931 7.07 2.931s5.21-1.07 7.069-2.931c1.861-1.859 2.931-4.439 2.931-7.069s-1.07-5.21-2.931-7.07z"/></svg>