<?xml version="1.0" encoding="iso-8859-1"?>
<!-- Generator: Adobe Illustrator 19.0.0, SVG Export Plug-In . SVG Version: 6.00 Build 0)  -->
<svg version="1.1" id="Capa_1" xmlns="http://www.w3.org/2000/svg" xmlns:xlink="http://www.w3.org/1999/xlink" x="0px" y="0px"
	 viewBox="0 0 512 512" style="enable-background:new 0 0 512 512;" xml:space="preserve" fill="#FFFFFF">
<g>
	<g>
		<path d="M456,0H56c-5.523,0-10,4.477-10,10v492c0,5.523,4.477,10,10,10h400c5.523,0,10-4.477,10-10V10C466,4.477,461.523,0,456,0z
			 M152.654,150.916c2.128-1.897,3.346-4.613,3.346-7.465V20h60v123.451c0,2.852,1.217,5.567,3.346,7.465
			c17.439,15.545,32.787,41.777,41.056,70.169c1.5,5.152,0.89,10.586-1.721,15.301c-4.786,8.645-19.294,13.72-28.782,11.114
			C220.118,238.144,208.573,232,186,232c-22.342,0-33.701,6.077-43.171,15.355c-7.087,6.944-25.819-3.771-29.439-10.111
			c-2.767-4.847-3.436-10.476-1.882-15.849C119.754,192.88,135.135,166.533,152.654,150.916z M216,373.386V492h-60V373.371
			c0-2.598-1.011-5.094-2.819-6.96c-13.273-13.693-26.37-35.252-35.933-59.147c-0.244-0.611,0.456-1.04,0.98-0.946
			C124.405,307.434,130.722,308,137,308c24.104,0,35.972-6.156,45.597-15.552c0.931-0.904,6.555-0.857,7.504,0.051
			c9.781,9.356,21.326,15.5,43.899,15.5c6.531,0,13.25-0.684,19.97-2.034c0.545-0.109,1.154,0.363,0.924,0.94
			c-9.567,24.051-22.715,45.745-36.073,59.519C217.011,368.29,216,370.787,216,373.386z M446,492H316V392h130V492z M446,372H306
			c-5.523,0-10,4.477-10,10v110h-60V377.343c19.095-20.999,31.594-48.251,37.478-63.045c2.8-7.04,1.521-15.034-3.339-20.861
			C260.444,281.813,246.699,288,234,288c-18.627,0-25.092-4.95-31.077-10.935c-6.995-6.983-26.136-7.338-33.165-0.067
			C163.732,283.231,157.494,288,137,288c-12.207,0-25.789-5.492-35.151,5.983c-4.814,5.9-6,13.643-3.17,20.71
			c5.88,14.694,18.35,41.76,37.321,62.633V492H66V20h70v119.101c-18.797,18.231-34.97,46.535-43.704,76.739
			c-6.136,21.219,6.789,44.545,28.183,50.049c9.14,2.352,27.48,4.892,35.216-3.107C161.397,256.883,167.613,252,186,252
			c18.627,0,25.092,4.949,31.078,10.936c8.254,8.238,25.102,5.223,35.072,2.326c20.895-6.072,33.545-28.855,27.454-49.769
			c-8.756-30.067-24.892-58.242-43.604-76.393V20h210V372z"/>
	</g>
</g>
<g>
	<g>
		<path d="M416,452h-70c-5.523,0-10,4.477-10,10s4.477,10,10,10h70c5.523,0,10-4.477,10-10S421.523,452,416,452z"/>
	</g>
</g>
<g>
	<g>
		<path d="M416,412c-5.51,0-10,4.49-10,10s4.49,10,10,10s10-4.49,10-10S421.51,412,416,412z"/>
	</g>
</g>
<g>
	<g>
		<path d="M376,412h-30c-5.51,0-10,4.49-10,10s4.49,10,10,10h30c5.51,0,10-4.49,10-10S381.51,412,376,412z"/>
	</g>
</g>
<g>
</g>
<g>
</g>
<g>
</g>
<g>
</g>
<g>
</g>
<g>
</g>
<g>
</g>
<g>
</g>
<g>
</g>
<g>
</g>
<g>
</g>
<g>
</g>
<g>
</g>
<g>
</g>
<g>
</g>
</svg>
